<svg xmlns="http://www.w3.org/2000/svg" fill="none" viewBox="0 0 11 11">
  <mask id="a" width="11" height="11" x="-.337" y="-.542" fill="#000" maskUnits="userSpaceOnUse">
    <path fill="#fff" d="M-.337-.542h11v11h-11z"/>
    <path d="M3.881 9.065H2a.337.337 0 0 1-.336-.337V6.846a.333.333 0 0 1 .096-.235l5.053-5.053a.337.337 0 0 1 .48 0l1.877 1.878a.337.337 0 0 1 0 .48L4.117 8.968a.333.333 0 0 1-.236.097Z"/>
  </mask>
  <path fill="#fff" d="m3.881 9.065.004-1.073h-.004v1.073ZM1.663 6.846h1.072v-.003l-1.072.003Zm.096-.235-.758-.76-.002.003.76.757Zm5.053-5.053.758.759.006-.006-.764-.753Zm.24-.1V2.53 1.458Zm.24.1-.765.753.006.006.759-.759Zm1.877 1.878-.758.759.006.005.752-.764Zm0 .48-.752-.764-.006.005.758.759ZM4.117 8.968l.757.76.002-.001-.759-.759Zm-.236-.976H2v2.146h1.882V7.992ZM2 7.992c.196 0 .383.078.52.216L1.004 9.725c.264.264.623.413.996.413V7.992Zm.52.216a.736.736 0 0 1 .216.52H.59c0 .374.148.733.413.997L2.52 8.208Zm.216.52V6.846H.59v1.882h2.145Zm0-1.885a.74.74 0 0 1-.055.283L.695 6.311c-.07.171-.106.354-.105.54l2.145-.008Zm-.055.283a.74.74 0 0 1-.16.241L.999 5.854c-.13.13-.234.286-.304.457l1.985.815Zm-.162.243L7.57 2.317 6.053.8 1.001 5.852l1.517 1.517Zm5.058-5.058a.736.736 0 0 1-.24.162L6.507.494a1.41 1.41 0 0 0-.46.311l1.53 1.506Zm-.24.162a.736.736 0 0 1-.284.058V.385a1.41 1.41 0 0 0-.545.11l.829 1.978Zm-.284.058a.736.736 0 0 1-.285-.058l.83-1.979a1.41 1.41 0 0 0-.545-.109v2.146Zm-.285-.058a.736.736 0 0 1-.24-.162L8.057.805a1.41 1.41 0 0 0-.46-.31l-.83 1.978Zm-.234-.156 1.878 1.878 1.517-1.518L8.05.8 6.533 2.317ZM8.417 4.2a.736.736 0 0 1-.163-.24l1.98-.828a1.41 1.41 0 0 0-.312-.46L8.417 4.2Zm-.163-.24a.736.736 0 0 1-.057-.284h2.146a1.41 1.41 0 0 0-.11-.544l-1.979.828Zm-.057-.284c0-.098.02-.194.057-.284l1.98.828a1.41 1.41 0 0 0 .109-.544H8.197Zm.057-.284a.736.736 0 0 1 .163-.24L9.922 4.68a1.41 1.41 0 0 0 .311-.46l-1.979-.828Zm.157-.235L3.359 8.21l1.517 1.517 5.052-5.052-1.517-1.518Zm-5.05 5.05a.74.74 0 0 1 .24-.16l.816 1.986c.17-.07.326-.174.457-.304L3.36 8.208Zm.24-.16a.74.74 0 0 1 .284-.055l-.007 2.146c.184 0 .368-.035.539-.105L3.6 8.048Z" mask="url(#a)"/>
  <path stroke="#fff" stroke-linecap="round" stroke-linejoin="round" stroke-width=".675" d="m5.704 2.666 2.358 2.358"/>
</svg>
