<svg width="24" height="24" viewBox="0 0 24 24" fill="none" xmlns="http://www.w3.org/2000/svg">
<path d="M3 21C2.40326 21 1.83097 20.7629 1.40901 20.341C0.987053 19.919 0.75 19.3467 0.75 18.75V5.25C0.75 4.65326 0.987053 4.08097 1.40901 3.65901C1.83097 3.23705 2.40326 3 3 3H8.25C8.36018 2.99982 8.46905 3.02392 8.56887 3.07059C8.66868 3.11725 8.75698 3.18534 8.8275 3.27L11.1 6H20.25C20.4489 6 20.6397 6.07902 20.7803 6.21967C20.921 6.36032 21 6.55109 21 6.75C21 6.94891 20.921 7.13968 20.7803 7.28033C20.6397 7.42098 20.4489 7.5 20.25 7.5H10.7475C10.6386 7.49909 10.5312 7.47446 10.4327 7.42783C10.3343 7.3812 10.2472 7.3137 10.1775 7.23L7.8975 4.5H3C2.80109 4.5 2.61032 4.57902 2.46967 4.71967C2.32902 4.86032 2.25 5.05109 2.25 5.25V18.75C2.25 18.9489 2.32902 19.1397 2.46967 19.2803C2.61032 19.421 2.80109 19.5 3 19.5C3.19891 19.5 3.38968 19.579 3.53033 19.7197C3.67098 19.8603 3.75 20.0511 3.75 20.25C3.75 20.4489 3.67098 20.6397 3.53033 20.7803C3.38968 20.921 3.19891 21 3 21Z" fill="#BDBDBD"/>
<path d="M19.0349 20.9999H2.99992C2.88665 21.0025 2.77429 20.9793 2.67126 20.9322C2.56823 20.8851 2.47721 20.8152 2.40503 20.7279C2.33286 20.6406 2.28141 20.538 2.25455 20.428C2.22768 20.3179 2.2261 20.2032 2.24992 20.0924L4.49992 9.59244C4.53651 9.42187 4.63142 9.26939 4.76831 9.16125C4.9052 9.0531 5.07551 8.99606 5.24992 8.99994H22.4999C22.6132 8.99741 22.7255 9.02057 22.8286 9.06769C22.9316 9.1148 23.0226 9.18464 23.0948 9.27197C23.167 9.3593 23.2184 9.46184 23.2453 9.57191C23.2722 9.68197 23.2737 9.79668 23.2499 9.90744L21.2399 19.2224C21.1317 19.7265 20.8536 20.1781 20.4522 20.5017C20.0508 20.8252 19.5505 21.0011 19.0349 20.9999ZM3.92992 19.4999H19.0349C19.2093 19.5038 19.3796 19.4468 19.5165 19.3386C19.6534 19.2305 19.7483 19.078 19.7849 18.9074L21.5699 10.4999H5.81992L3.92992 19.4999Z" fill="#BDBDBD"/>
</svg>
