<svg width="132" height="32" viewBox="0 0 132 32" fill="none" stroke="none" xmlns="http://www.w3.org/2000/svg">
<path d="M57.98 20.52H52.74L51.9 23H48.32L53.4 8.96H57.36L62.44 23H58.82L57.98 20.52ZM57.1 17.88L55.36 12.74L53.64 17.88H57.1ZM71.1461 23L68.2261 17.7H67.4061V23H63.9861V8.96H69.7261C70.8328 8.96 71.7728 9.15333 72.5461 9.54C73.3328 9.92667 73.9194 10.46 74.3061 11.14C74.6928 11.8067 74.8861 12.5533 74.8861 13.38C74.8861 14.3133 74.6194 15.1467 74.0861 15.88C73.5661 16.6133 72.7928 17.1333 71.7661 17.44L75.0061 23H71.1461ZM67.4061 15.28H69.5261C70.1528 15.28 70.6194 15.1267 70.9261 14.82C71.2461 14.5133 71.4061 14.08 71.4061 13.52C71.4061 12.9867 71.2461 12.5667 70.9261 12.26C70.6194 11.9533 70.1528 11.8 69.5261 11.8H67.4061V15.28ZM89.593 23H86.173L80.453 14.34V23H77.033V8.96H80.453L86.173 17.66V8.96H89.593V23ZM100.812 20.52H95.572L94.732 23H91.152L96.232 8.96H100.192L105.272 23H101.652L100.812 20.52ZM99.932 17.88L98.192 12.74L96.472 17.88H99.932ZM116.138 13.4C115.885 12.9333 115.518 12.58 115.038 12.34C114.571 12.0867 114.018 11.96 113.378 11.96C112.271 11.96 111.385 12.3267 110.718 13.06C110.051 13.78 109.718 14.7467 109.718 15.96C109.718 17.2533 110.065 18.2667 110.758 19C111.465 19.72 112.431 20.08 113.658 20.08C114.498 20.08 115.205 19.8667 115.778 19.44C116.365 19.0133 116.791 18.4 117.058 17.6H112.718V15.08H120.158V18.26C119.905 19.1133 119.471 19.9067 118.858 20.64C118.258 21.3733 117.491 21.9667 116.558 22.42C115.625 22.8733 114.571 23.1 113.398 23.1C112.011 23.1 110.771 22.8 109.678 22.2C108.598 21.5867 107.751 20.74 107.138 19.66C106.538 18.58 106.238 17.3467 106.238 15.96C106.238 14.5733 106.538 13.34 107.138 12.26C107.751 11.1667 108.598 10.32 109.678 9.72C110.758 9.10667 111.991 8.8 113.378 8.8C115.058 8.8 116.471 9.20667 117.618 10.02C118.778 10.8333 119.545 11.96 119.918 13.4H116.138ZM125.473 11.7V14.54H130.053V17.18H125.473V20.26H130.653V23H122.053V8.96H130.653V11.7H125.473Z" stroke="none" fill="current"/>
<circle cx="16" cy="16" r="12.5" fill="none" stroke="current" stroke-width="7"/>
</svg>
