<svg width="37" height="59" viewBox="0 0 37 59" fill="none" xmlns="http://www.w3.org/2000/svg">
<path d="M1.81487 23.5932C2.2962 23.5932 2.75782 23.7844 3.09818 24.1248C3.43853 24.4651 3.62974 24.9268 3.62974 25.4081V29.0378C3.62974 32.8885 5.15941 36.5815 7.88224 39.3043C10.6051 42.0271 14.298 43.5568 18.1487 43.5568C21.9994 43.5568 25.6923 42.0271 28.4151 39.3043C31.138 36.5815 32.6677 32.8885 32.6677 29.0378V25.4081C32.6677 24.9268 32.8589 24.4651 33.1992 24.1248C33.5396 23.7844 34.0012 23.5932 34.4825 23.5932C34.9639 23.5932 35.4255 23.7844 35.7658 24.1248C36.1062 24.4651 36.2974 24.9268 36.2974 25.4081V29.0378C36.2974 33.537 34.6263 37.8758 31.6082 41.2125C28.5901 44.5492 24.4402 46.6459 19.9636 47.0958V54.446H30.8528C31.3341 54.446 31.7957 54.6372 32.1361 54.9776C32.4764 55.3179 32.6677 55.7795 32.6677 56.2609C32.6677 56.7422 32.4764 57.2038 32.1361 57.5442C31.7957 57.8845 31.3341 58.0757 30.8528 58.0757H5.44461C4.96328 58.0757 4.50166 57.8845 4.1613 57.5442C3.82095 57.2038 3.62974 56.7422 3.62974 56.2609C3.62974 55.7795 3.82095 55.3179 4.1613 54.9776C4.50166 54.6372 4.96328 54.446 5.44461 54.446H16.3338V47.0958C11.8572 46.6459 7.7073 44.5492 4.68919 41.2125C1.67107 37.8758 -5.65211e-05 33.537 1.43336e-09 29.0378V25.4081C1.43336e-09 24.9268 0.191209 24.4651 0.531563 24.1248C0.871917 23.7844 1.33354 23.5932 1.81487 23.5932Z" fill="current"/>
<path d="M25.4095 29.0379C25.4095 30.9632 24.6446 32.8097 23.2832 34.1711C21.9218 35.5326 20.0753 36.2974 18.15 36.2974C16.2247 36.2974 14.3782 35.5326 13.0168 34.1711C11.6553 32.8097 10.8905 30.9632 10.8905 29.0379V10.8892C10.8905 8.96388 11.6553 7.11741 13.0168 5.75599C14.3782 4.39457 16.2247 3.62974 18.15 3.62974C20.0753 3.62974 21.9218 4.39457 23.2832 5.75599C24.6446 7.11741 25.4095 8.96388 25.4095 10.8892V29.0379ZM18.15 0C15.262 0 12.4923 1.14725 10.4502 3.18938C8.40803 5.2315 7.26077 8.00122 7.26077 10.8892V29.0379C7.26077 31.9259 8.40803 34.6956 10.4502 36.7378C12.4923 38.7799 15.262 39.9271 18.15 39.9271C21.038 39.9271 23.8077 38.7799 25.8498 36.7378C27.892 34.6956 29.0392 31.9259 29.0392 29.0379V10.8892C29.0392 8.00122 27.892 5.2315 25.8498 3.18938C23.8077 1.14725 21.038 0 18.15 0Z" fill="current"/>
</svg>
