<svg xmlns="http://www.w3.org/2000/svg" fill="none" viewBox="0 0 37 59">
  <path fill="#fff" d="M1.815 23.593a1.815 1.815 0 0 1 1.815 1.815v3.63a14.519 14.519 0 1 0 29.038 0v-3.63a1.815 1.815 0 1 1 3.63 0v3.63a18.15 18.15 0 0 1-16.334 18.058v7.35h10.889a1.815 1.815 0 0 1 0 3.63H5.445a1.815 1.815 0 0 1 0-3.63h10.889v-7.35A18.149 18.149 0 0 1 0 29.038v-3.63a1.815 1.815 0 0 1 1.815-1.815Z"/>
  <path fill="#fff" d="M25.41 29.038a7.26 7.26 0 0 1-14.52 0V10.889a7.26 7.26 0 1 1 14.52 0v18.149ZM18.15 0A10.89 10.89 0 0 0 7.26 10.89v18.148a10.89 10.89 0 0 0 21.78 0V10.889A10.889 10.889 0 0 0 18.15 0Z"/>
</svg>
