<svg xmlns="http://www.w3.org/2000/svg" fill="none" viewBox="0 0 40 48">
  <path fill="#59EBFF" d="M19.964.427A19.356 19.356 0 0 0 6.324 6.04 19.094 19.094 0 0 0 .676 19.587c0 17.03 19.29 27.674 19.29 27.674s19.288-10.644 19.288-27.675c0-5.08-2.032-9.954-5.65-13.547A19.356 19.356 0 0 0 19.965.427Zm0 27.675c-1.695 0-3.353-.5-4.763-1.435a8.527 8.527 0 0 1-3.157-3.822 8.461 8.461 0 0 1-.488-4.92 8.497 8.497 0 0 1 2.346-4.36 8.591 8.591 0 0 1 4.39-2.33 8.627 8.627 0 0 1 4.953.485 8.562 8.562 0 0 1 3.847 3.136 8.474 8.474 0 0 1-1.066 10.752 8.602 8.602 0 0 1-6.062 2.494Z"/>
</svg>
