<svg xmlns="http://www.w3.org/2000/svg" fill="none" viewBox="0 0 39 48">
  <path fill="#8BDE6E" d="M19.696.316a19.356 19.356 0 0 0-13.64 5.612 19.094 19.094 0 0 0-5.65 13.547c0 17.03 19.29 27.674 19.29 27.674s19.289-10.644 19.289-27.674c0-5.081-2.032-9.954-5.65-13.547A19.356 19.356 0 0 0 19.695.316Zm0 27.674c-1.696 0-3.353-.5-4.763-1.435a8.527 8.527 0 0 1-3.158-3.821 8.461 8.461 0 0 1-.487-4.92 8.498 8.498 0 0 1 2.346-4.36 8.59 8.59 0 0 1 4.39-2.33 8.627 8.627 0 0 1 4.953.484 8.56 8.56 0 0 1 3.847 3.136 8.475 8.475 0 0 1-1.066 10.752 8.602 8.602 0 0 1-6.062 2.494Z"/>
</svg>
