<svg xmlns="http://www.w3.org/2000/svg" fill="none" viewBox="0 0 40 48">
  <path fill="#FA881E" d="M19.873.797A19.356 19.356 0 0 0 6.233 6.41 19.094 19.094 0 0 0 .585 19.956c0 17.03 19.29 27.674 19.29 27.674s19.288-10.643 19.288-27.674c0-5.08-2.032-9.954-5.65-13.547A19.356 19.356 0 0 0 19.874.797Zm0 27.674c-1.696 0-3.353-.499-4.763-1.434a8.529 8.529 0 0 1-3.157-3.822 8.462 8.462 0 0 1-.488-4.92 8.497 8.497 0 0 1 2.346-4.36 8.59 8.59 0 0 1 4.39-2.33 8.627 8.627 0 0 1 4.953.484A8.56 8.56 0 0 1 27 15.226a8.475 8.475 0 0 1-1.066 10.751 8.602 8.602 0 0 1-6.062 2.494Z"/>
</svg>
