<svg xmlns="http://www.w3.org/2000/svg" fill="none" viewBox="0 0 39 48">
  <path fill="#FF5656" d="M19.71.973A19.356 19.356 0 0 0 6.072 6.585a19.094 19.094 0 0 0-5.65 13.547c0 17.03 19.29 27.674 19.29 27.674s19.288-10.644 19.288-27.674c0-5.081-2.032-9.954-5.65-13.547A19.356 19.356 0 0 0 19.712.973Zm0 27.674c-1.695 0-3.353-.5-4.762-1.435a8.528 8.528 0 0 1-3.158-3.821 8.462 8.462 0 0 1-.488-4.92 8.497 8.497 0 0 1 2.347-4.36 8.59 8.59 0 0 1 4.389-2.33 8.626 8.626 0 0 1 4.953.484 8.56 8.56 0 0 1 3.848 3.136 8.474 8.474 0 0 1-1.067 10.752 8.602 8.602 0 0 1-6.061 2.494Z"/>
</svg>
