<svg width="869" height="322" viewBox="0 0 869 322" fill="none" xmlns="http://www.w3.org/2000/svg">
<path d="M94.6523 118.269C126.815 114.513 193.787 107.054 226.008 103.821C259.462 100.465 262.029 145.611 234.59 154.045C207.417 162.399 154.706 171.553 127.62 180.191C94.4263 190.774 104.51 246.827 144.617 238.241C184.724 229.655 266.167 210.36 306.361 199.8C318.496 196.613 330.173 197.124 342.417 200.317C425.61 221.987 572.154 253.467 666.422 279.265C727.362 295.943 723.132 205.75 678.267 192.834C611.045 173.486 504.672 150.783 439.258 132.718C402.181 122.484 403.456 86.0226 428.183 66.6688C444.375 53.9965 473.199 35.3509 493.858 23.3229C512.918 12.2296 519.263 13.3151 536.098 18.1623C556.705 24.095 576.147 32.8663 593.144 44.4763C608.895 55.2329 622.577 43.9771 612.331 25.6449C607.857 17.634 608.599 11.713 614.904 6.55232C621.62 1.06081 637.852 2.97645 649.929 9.64638C684.954 28.9944 708.708 61.7171 710.968 99.6875C714.057 151.497 730.856 150.748 772.522 145.872C836.395 138.389 868.024 185.114 865.497 225.592C862.409 275.126 825.187 319.029 764.409 319.029C764.409 319.029 223.348 319.099 42.9956 319.029C34.0597 319.029 14.1076 320.881 7.06665 311.761C-3.04563 298.665 9.12966 289.574 22.7769 269.193C45.0645 235.913 54.4581 175.71 63.7301 146.644C68.9051 130.425 78.4379 120.156 94.6349 118.263L94.6523 118.269Z" stroke="white" stroke-width="5" stroke-miterlimit="10"/>
</svg>
